<?xml version="1.0" encoding="UTF-8" standalone="no"?>
<!-- Created with Inkscape (http://www.inkscape.org/) -->

<svg
   width="500"
   height="500"
   viewBox="0 0 132.29166 132.29167"
   version="1.1"
   id="svg1"
   xmlns="http://www.w3.org/2000/svg"
   xmlns:svg="http://www.w3.org/2000/svg">
  <defs
     id="defs1" />
  <g
     id="layer1"
     transform="matrix(1.4724837,0,0,1.4724837,-29.622039,-39.397073)">
    <g
       id="g8"
       transform="matrix(1.2766762,-0.23210312,0.23210312,1.2766762,-32.193603,-6.6006608)">
      <path
         id="path2-3"
         style="fill:none;fill-opacity:1;stroke:#ffffff;stroke-width:5.29167;stroke-dasharray:none;stroke-opacity:1"
         d="M 63.981624,42.947766 A 24.046106,24.046106 0 0 0 39.935546,66.993843 24.046106,24.046106 0 0 0 56.786197,89.938178 c 8.170886,-5.009649 16.343459,-10.01702 24.514783,-15.025956 0.554688,-0.307291 1.109293,-0.614615 1.663981,-0.921907 -1.887756,3.338864 -4.033662,6.523763 -6.035291,9.794751 L 81.375394,83.59748 A 24.046106,24.046106 0 0 0 88.027701,66.993843 24.046106,24.046106 0 0 0 63.981624,42.947766 Z" />
      <path
         style="display:inline;fill:#ffffff;fill-opacity:1;stroke:none;stroke-width:8.65612;stroke-dasharray:none;stroke-opacity:1"
         d="M 73.346991,83.589799 55.676949,94.383765 65.765699,93.22838 54.603015,104.32371 84.574379,86.725359 70.806583,87.307164 Z"
         id="path3-1" />
    </g>
  </g>
</svg>
